<?xml version="1.0"?>
<svg width="430.114" height="430.114" xmlns="http://www.w3.org/2000/svg">

 <g>
  <title>background</title>
  <rect fill="none" id="canvas_background" height="402" width="582" y="-1" x="-1"/>
 </g>
 <g>
  <title>Layer 1</title>
  <g id="svg_1">
   <path fill="#c7243a" d="m356.208008,107.051003c-1.531006,-5.737999 -4.639984,-11.852005 -6.940002,-17.205002c-27.522003,-66.142 -87.657013,-89.846001 -136.213013,-89.846001c-65.000992,0 -136.591995,43.585999 -146.149994,133.427002l0,18.354996c0,0.766006 0.264,7.647003 0.639,11.089005c5.358002,42.815994 39.142998,88.319992 64.375008,131.135986c27.145996,45.873016 55.313995,90.999023 83.220993,136.106018c17.208008,-29.436005 34.354004,-59.259003 51.169998,-87.932983c4.583008,-8.415009 9.903015,-16.825012 14.490997,-24.857025c3.058014,-5.347992 8.899994,-10.695984 11.569,-15.671997c27.14502,-49.69899 70.838013,-99.781998 70.838013,-149.104004l0,-20.261993c0.001007,-5.347 -6.627014,-24.081001 -7,-25.234001zm-141.963013,92.141991c-19.10701,0 -40.020996,-9.554001 -50.344009,-35.939011c-1.537994,-4.199997 -1.414001,-12.616989 -1.414001,-13.387985l0,-11.852005c0,-33.636002 28.560013,-48.931999 53.406006,-48.931999c30.587997,0 54.24501,24.472 54.24501,55.060005c0,30.587006 -25.305008,55.050995 -55.893005,55.050995z" id="Facebook_Places"/>
  </g>
  <g id="svg_2"/>
  <g id="svg_3"/>
  <g id="svg_4"/>
  <g id="svg_5"/>
  <g id="svg_6"/>
  <g id="svg_7"/>
  <g id="svg_8"/>
  <g id="svg_9"/>
  <g id="svg_10"/>
  <g id="svg_11"/>
  <g id="svg_12"/>
  <g id="svg_13"/>
  <g id="svg_14"/>
  <g id="svg_15"/>
  <g id="svg_16"/>
 </g>
</svg>