<?xml version="1.0"?>
<svg width="577.574" height="577.574" xmlns="http://www.w3.org/2000/svg">

 <g>
  <title>background</title>
  <rect fill="none" id="canvas_background" height="402" width="582" y="-1" x="-1"/>
 </g>
 <g>
  <title>Layer 1</title>
  <g id="svg_1">
   <g id="Layer_1_82_">
    <g id="svg_2">
     <path fill="#c7243a" id="svg_3" d="m567.375,476.850006l-161.925995,-164.475006c-6.375,3.824005 -11.475006,6.375 -19.125,8.924011c-7.64801,2.550995 -16.574005,3.825989 -25.5,3.825989c-10.199005,0 -20.39801,-2.550995 -29.324005,-5.10199l-52.274994,54.825989c6.375,5.100006 15.299988,7.649994 24.223999,8.924011c11.47699,0 22.950989,-3.824005 31.875,-12.75l1.274994,-1.27301l161.925995,172.125c6.375,6.375 15.298981,10.198975 24.225006,10.198975s17.849976,-3.823975 24.224976,-10.198975l20.400024,-20.400024c6.375,-6.375 10.198975,-15.300964 10.198975,-24.224976c0,-8.925995 -3.823975,-15.300995 -10.198975,-20.399994z"/>
     <path fill="#c7243a" id="svg_4" d="m179.774994,261.375l48.449997,-45.900009c-2.550003,-8.924988 -3.824997,-17.849991 -3.824997,-26.774994c0,-15.300003 5.100006,-30.600006 12.75,-43.349991l-102,-105.825005c-15.300003,-15.299999 -42.074997,-15.299999 -57.375,0c-26.774994,26.774002 -28.049995,70.124001 -3.824997,99.448997l105.824997,122.401001z"/>
     <path fill="#c7243a" id="svg_5" d="m332.774994,276.674011c7.649994,7.649994 17.850006,11.475006 28.049011,11.475006c10.200989,0 20.399994,-3.825012 28.050995,-11.475006l128.775024,-128.775009c5.099976,-5.100006 5.099976,-12.75 0,-17.850006l-2.551025,-2.549995c-2.54895,-2.549995 -5.099976,-3.824997 -8.923981,-3.824997c-3.825989,0 -6.375,1.275002 -8.925995,3.824997l-85.425995,85.425011c-3.824005,3.824997 -8.924011,5.099991 -14.02301,5.099991c-5.10199,0 -10.200989,-2.550003 -14.024994,-5.099991l-2.550995,-2.550003c-7.649994,-7.650009 -7.649994,-19.125 0,-26.775009l85.425995,-85.424995c5.100006,-5.099998 5.100006,-12.75 0,-17.849998l-2.550995,-2.550003c-2.549011,-2.550003 -5.100006,-3.824997 -8.924011,-3.824997c-3.825989,0 -6.375,1.274994 -8.925995,3.824997l-85.425995,85.425003c-3.824005,3.824997 -8.924011,5.100006 -14.02301,5.100006c-5.10199,0 -10.200989,-2.550003 -14.024994,-5.100006l-2.550995,-2.550003c-3.824005,-3.824997 -5.100006,-8.925003 -5.100006,-14.024994c0,-5.100006 2.550995,-10.199997 5.100006,-14.025009l85.425995,-85.424995c2.549011,-2.549999 3.824005,-5.100002 3.824005,-8.925003c0,-3.824997 -1.274994,-6.374998 -3.824005,-8.924999l-2.550995,-2.549999c-2.550995,-2.549999 -5.100006,-3.825001 -8.925995,-3.825001c-3.824005,0 0.001984,5.1 -2.549011,7.650002l-128.774017,128.775997c-7.649994,7.649994 -11.475006,17.850006 -11.475006,28.050003s3.825012,21.674988 11.475006,28.049988l3.825012,3.825012l-266.475019,252.449997c-6.375,6.375 -10.2,15.299011 -10.2,24.225006c0,8.924011 3.825,17.850006 10.2,24.225006l19.125001,21.675964c6.375,6.375 15.299999,12.75 24.224998,12.75l0,0c8.924999,0 17.850002,-6.375 24.225002,-12.75l251.174004,-269.02597l3.825989,3.824005z"/>
    </g>
   </g>
  </g>
  <g id="svg_6"/>
  <g id="svg_7"/>
  <g id="svg_8"/>
  <g id="svg_9"/>
  <g id="svg_10"/>
  <g id="svg_11"/>
  <g id="svg_12"/>
  <g id="svg_13"/>
  <g id="svg_14"/>
  <g id="svg_15"/>
  <g id="svg_16"/>
  <g id="svg_17"/>
  <g id="svg_18"/>
  <g id="svg_19"/>
  <g id="svg_20"/>
 </g>
</svg>